<svg xmlns="http://www.w3.org/2000/svg" viewBox="0 0 363.71 66.06"><defs><style>.cls-1{fill:#f3961a;}.cls-2{fill:#356fb7;}</style></defs><g id="レイヤー_2" data-name="レイヤー 2"><g id="レイヤー_1-2" data-name="レイヤー 1"><path class="cls-1" d="M40.42,6.26c0,.2-.07.5-.14.88S40.12,8,40,8.41s-.25.92-.41,1.4a8.59,8.59,0,0,1-.53,1.3,4.62,4.62,0,0,1-.64,1,.94.94,0,0,1-.69.38,2.55,2.55,0,0,1-1.3-.47,21.45,21.45,0,0,0-1.89-1,18.56,18.56,0,0,0-2.65-1,11.87,11.87,0,0,0-3.53-.48A9.94,9.94,0,0,0,24.8,10a7.47,7.47,0,0,0-2.49,1.51A7,7,0,0,0,20.12,16a4.07,4.07,0,0,0,.48,2.43,7.24,7.24,0,0,0,1.67,2,19.25,19.25,0,0,0,2.48,1.75c.94.56,1.88,1.15,2.84,1.76s1.9,1.29,2.82,2a12.31,12.31,0,0,1,2.41,2.53,10.47,10.47,0,0,1,1.56,3.3A12,12,0,0,1,34.7,36a16.35,16.35,0,0,1-2,6.7,18.25,18.25,0,0,1-4.59,5.38,21.88,21.88,0,0,1-6.76,3.58A26.58,26.58,0,0,1,12.82,53a24.76,24.76,0,0,1-4.57-.4,25.27,25.27,0,0,1-3.66-1A16.58,16.58,0,0,1,2,50.42,6.23,6.23,0,0,1,.41,49.21,2.26,2.26,0,0,1,0,47.48a8,8,0,0,1,.15-.92q.14-.62.33-1.32c.13-.48.28-1,.45-1.46a9,9,0,0,1,.58-1.36,4.25,4.25,0,0,1,.68-1A1,1,0,0,1,3,41a2.69,2.69,0,0,1,1.5.6,22.88,22.88,0,0,0,2.14,1.3,18.68,18.68,0,0,0,3.07,1.33,13.52,13.52,0,0,0,4.36.61,13,13,0,0,0,4-.57,9.5,9.5,0,0,0,3-1.58A7.69,7.69,0,0,0,23,40.4a7.45,7.45,0,0,0,.84-2.9A4.25,4.25,0,0,0,23.35,35a7.08,7.08,0,0,0-1.65-2,17.21,17.21,0,0,0-2.42-1.71c-.92-.53-1.85-1.11-2.79-1.73a32.74,32.74,0,0,1-2.77-2,12.25,12.25,0,0,1-2.35-2.52,10.79,10.79,0,0,1-1.54-3.32,12.17,12.17,0,0,1-.31-4.37A15.62,15.62,0,0,1,11.45,11a16.71,16.71,0,0,1,4.27-5,19.85,19.85,0,0,1,6.15-3.26A24.07,24.07,0,0,1,29.5,1.57a21.94,21.94,0,0,1,3.62.29,22.9,22.9,0,0,1,3.08.73,13.09,13.09,0,0,1,2.34,1,6.26,6.26,0,0,1,1.3.9,2,2,0,0,1,.49.77A2.65,2.65,0,0,1,40.42,6.26Z"/><path class="cls-1" d="M68.66,50.86a1.54,1.54,0,0,1-.38.67,1.84,1.84,0,0,1-.81.46,6.42,6.42,0,0,1-1.34.27,18.66,18.66,0,0,1-2,.1,16.43,16.43,0,0,1-1.93-.1A4.33,4.33,0,0,1,61,52a.84.84,0,0,1-.51-.46.88.88,0,0,1,0-.67l1.51-5.57A15.21,15.21,0,0,1,59.74,48a21.26,21.26,0,0,1-3.31,2.5,18.83,18.83,0,0,1-3.94,1.82,13.44,13.44,0,0,1-4.24.69,11.68,11.68,0,0,1-4.48-.75,6.94,6.94,0,0,1-2.82-2,7.29,7.29,0,0,1-1.39-3.09,14,14,0,0,1-.18-3.92,21.63,21.63,0,0,1,.41-2.67c.19-.9.42-1.83.68-2.78l6.05-21.23a1.41,1.41,0,0,1,.42-.67,2.39,2.39,0,0,1,.92-.46,10.62,10.62,0,0,1,1.58-.27c.64-.06,1.43-.09,2.35-.09s1.72,0,2.31.09a7,7,0,0,1,1.38.27,1.07,1.07,0,0,1,.63.46.85.85,0,0,1,0,.67L50.31,37.12a15.61,15.61,0,0,0-.44,1.76,17.48,17.48,0,0,0-.25,1.77,7.63,7.63,0,0,0,0,1.67,3.19,3.19,0,0,0,.45,1.29,2.14,2.14,0,0,0,.91.8,3.28,3.28,0,0,0,1.41.27,6.85,6.85,0,0,0,3.37-1,15.17,15.17,0,0,0,3.49-2.8,23.42,23.42,0,0,0,3.11-4.22,25,25,0,0,0,2.27-5.28l4.2-14.82a1.13,1.13,0,0,1,.4-.67,2.58,2.58,0,0,1,.94-.46,10.62,10.62,0,0,1,1.58-.27c.64-.06,1.43-.09,2.35-.09s1.72,0,2.31.09a7.54,7.54,0,0,1,1.4.27,1,1,0,0,1,.63.46,1,1,0,0,1,0,.67Z"/><path class="cls-1" d="M116.51,24.22a22.72,22.72,0,0,1-.41,2.69c-.19.89-.42,1.82-.68,2.76l-6.08,21.15a1.37,1.37,0,0,1-.42.67A2.38,2.38,0,0,1,108,52a7.51,7.51,0,0,1-1.56.29c-.63.06-1.42.1-2.37.1s-1.72,0-2.31-.1a5.18,5.18,0,0,1-1.38-.29,1.13,1.13,0,0,1-.63-.48.89.89,0,0,1,0-.67l5.92-20.53c.18-.62.33-1.24.45-1.88a17,17,0,0,0,.24-1.69,4.82,4.82,0,0,0-.48-2.84,2.47,2.47,0,0,0-2.36-1.12,6.92,6.92,0,0,0-3.37,1,15.19,15.19,0,0,0-3.46,2.71,21.73,21.73,0,0,0-3,4,19.55,19.55,0,0,0-2.11,4.85L87,50.82a1.53,1.53,0,0,1-.42.67,2.38,2.38,0,0,1-.93.48,7.61,7.61,0,0,1-1.58.29c-.64.06-1.43.1-2.35.1s-1.72,0-2.31-.1a5.55,5.55,0,0,1-1.4-.29,1.06,1.06,0,0,1-.63-.48,1,1,0,0,1,0-.67l9.83-34.28a1.6,1.6,0,0,1,.38-.67,1.94,1.94,0,0,1,.81-.46,8.13,8.13,0,0,1,1.36-.27,19,19,0,0,1,2-.09,16.63,16.63,0,0,1,1.93.09,5.14,5.14,0,0,1,1.15.27.93.93,0,0,1,.52.46,1,1,0,0,1,0,.67l-1.59,5.65a17.38,17.38,0,0,1,2.38-2.75,19.07,19.07,0,0,1,3.31-2.51,20.33,20.33,0,0,1,4-1.83,13.72,13.72,0,0,1,4.35-.71,11,11,0,0,1,4.44.79A7.07,7.07,0,0,1,115,17.31a7.44,7.44,0,0,1,1.36,3.13A13.84,13.84,0,0,1,116.51,24.22Z"/><path class="cls-1" d="M156.67,24.22a22.68,22.68,0,0,1-.4,2.69c-.2.89-.42,1.82-.68,2.76l-6.08,21.15a1.46,1.46,0,0,1-.43.67,2.26,2.26,0,0,1-.92.48,7.65,7.65,0,0,1-1.56.29c-.63.06-1.42.1-2.37.1s-1.72,0-2.31-.1a5.18,5.18,0,0,1-1.38-.29,1.13,1.13,0,0,1-.63-.48.89.89,0,0,1,0-.67l5.92-20.53c.18-.62.33-1.24.45-1.88s.19-1.21.24-1.69a4.82,4.82,0,0,0-.49-2.84,2.46,2.46,0,0,0-2.36-1.12,7,7,0,0,0-3.37,1,15.37,15.37,0,0,0-3.45,2.71,21.73,21.73,0,0,0-3.05,4,19.18,19.18,0,0,0-2.11,4.85L127.2,50.82a1.37,1.37,0,0,1-.42.67,2.33,2.33,0,0,1-.92.48,7.74,7.74,0,0,1-1.58.29c-.65.06-1.43.1-2.35.1s-1.72,0-2.32-.1a5.46,5.46,0,0,1-1.39-.29,1,1,0,0,1-.63-.48,1,1,0,0,1,0-.67l9.82-34.28a1.62,1.62,0,0,1,.39-.67,2,2,0,0,1,.8-.46,8.27,8.27,0,0,1,1.37-.27,19,19,0,0,1,2-.09,16.75,16.75,0,0,1,1.93.09,5,5,0,0,1,1.14.27.86.86,0,0,1,.52.46,1.09,1.09,0,0,1,0,.67l-1.6,5.65a18,18,0,0,1,2.39-2.75,19,19,0,0,1,3.3-2.51,20.42,20.42,0,0,1,4-1.83,13.66,13.66,0,0,1,4.34-.71,11,11,0,0,1,4.45.79,7.07,7.07,0,0,1,2.77,2.13,7.57,7.57,0,0,1,1.36,3.13A13.47,13.47,0,0,1,156.67,24.22Z"/><path class="cls-1" d="M196.63,16.47a5.77,5.77,0,0,1-.21,1.11,9.26,9.26,0,0,1-.45,1.27q-1.6,3.52-3.45,7.29t-4.14,7.75q-2.31,4-5.17,8.26c-1.91,2.84-4.06,5.78-6.48,8.82L166.22,64.26a3.48,3.48,0,0,1-.93.82,5.28,5.28,0,0,1-1.35.54A13.46,13.46,0,0,1,162,66c-.75.07-1.61.11-2.58.11a19.06,19.06,0,0,1-2.66-.14,3.17,3.17,0,0,1-1.44-.44.71.71,0,0,1-.35-.76,2.54,2.54,0,0,1,.63-1.12l9.7-11.47-2.8-32.94c0-.33,0-.68-.07-1a7.17,7.17,0,0,1,0-.93,2.31,2.31,0,0,1,.35-1.11,1.79,1.79,0,0,1,.9-.65,6.94,6.94,0,0,1,1.62-.33q1-.09,2.43-.09c1,0,1.87,0,2.47,0a4.55,4.55,0,0,1,1.34.25,1,1,0,0,1,.58.58,3.18,3.18,0,0,1,.17,1l1.46,24h.08q2.17-2.88,4-5.83c1.22-2,2.35-4,3.39-6s2-4.1,2.94-6.18,1.76-4.19,2.55-6.32a1.56,1.56,0,0,1,.41-.67,2.16,2.16,0,0,1,.94-.46,12,12,0,0,1,1.69-.27q1.05-.09,2.7-.09a12.36,12.36,0,0,1,3.35.3A1,1,0,0,1,196.63,16.47Z"/><path class="cls-2" d="M227.66,50.36a5.74,5.74,0,0,1-.82,1.06,2.7,2.7,0,0,1-1.17.61,9.14,9.14,0,0,1-2,.27c-.81,0-1.87.06-3.17.06-1.51,0-2.72,0-3.61-.06a8.51,8.51,0,0,1-2-.27,1.36,1.36,0,0,1-.88-.63,2.6,2.6,0,0,1-.23-1.15l-2.2-44.88a9.14,9.14,0,0,1,.07-1.67,1.24,1.24,0,0,1,.62-1,3.76,3.76,0,0,1,1.59-.43q1.06-.09,2.94-.09c1.26,0,2.23,0,2.93.07a6.12,6.12,0,0,1,1.59.29,1,1,0,0,1,.66.6,3.61,3.61,0,0,1,.14,1l.93,38.24h.08L245.77,4a4.1,4.1,0,0,1,.69-.9,2.53,2.53,0,0,1,1-.56,8.76,8.76,0,0,1,1.71-.27c.71,0,1.64-.07,2.79-.07s2.19,0,2.87.11a1.93,1.93,0,0,1,1.34.54,1.31,1.31,0,0,1,0,1.25A17.9,17.9,0,0,1,255,6.33Z"/><path class="cls-2" d="M257.14,50.82a1.46,1.46,0,0,1-.43.67,2.26,2.26,0,0,1-.92.48,7.61,7.61,0,0,1-1.58.29c-.64.06-1.43.1-2.35.1s-1.72,0-2.31-.1a5.55,5.55,0,0,1-1.4-.29,1.06,1.06,0,0,1-.63-.48,1,1,0,0,1,0-.67l9.74-34.16a1.37,1.37,0,0,1,.42-.67,2.67,2.67,0,0,1,.93-.5,8.08,8.08,0,0,1,1.56-.33,21.93,21.93,0,0,1,2.37-.11,20.22,20.22,0,0,1,2.31.11,5.77,5.77,0,0,1,1.4.33,1.09,1.09,0,0,1,.62.5.9.9,0,0,1,0,.67ZM271,5.07a11.35,11.35,0,0,1-.93,2.4A4.88,4.88,0,0,1,268.68,9a5,5,0,0,1-1.95.84,13,13,0,0,1-2.79.25,11,11,0,0,1-2.61-.25A2.53,2.53,0,0,1,259.87,9a2.48,2.48,0,0,1-.46-1.57,8.78,8.78,0,0,1,.44-2.4,10.75,10.75,0,0,1,.93-2.34,5.11,5.11,0,0,1,1.36-1.58,5.25,5.25,0,0,1,2-.88A12.31,12.31,0,0,1,266.89,0a10.2,10.2,0,0,1,2.6.27,2.59,2.59,0,0,1,1.46.88,2.43,2.43,0,0,1,.44,1.58A9.45,9.45,0,0,1,271,5.07Z"/><path class="cls-2" d="M303.51,24.11a10.77,10.77,0,0,1-1.67,5,12,12,0,0,1-4.21,3.8,23,23,0,0,1-6.89,2.43,48.46,48.46,0,0,1-9.72.85h-3.53c-.16.59-.28,1.17-.39,1.75s-.17,1.1-.21,1.59a5.85,5.85,0,0,0,1.21,4.68c1,1,2.67,1.57,5,1.57a26.68,26.68,0,0,0,4.58-.36,35.14,35.14,0,0,0,3.6-.81c1-.29,1.89-.56,2.58-.8a5.35,5.35,0,0,1,1.49-.37.68.68,0,0,1,.63.27,1.46,1.46,0,0,1,.12.85,13,13,0,0,1-.24,1.49c-.13.57-.29,1.12-.47,1.67a11,11,0,0,1-.68,1.56,3.79,3.79,0,0,1-.84,1.11,5.41,5.41,0,0,1-1.77.92,24,24,0,0,1-3,.85q-1.75.38-3.93.63a37.67,37.67,0,0,1-4.4.25,23.36,23.36,0,0,1-6.36-.77,10.56,10.56,0,0,1-4.38-2.34,8.58,8.58,0,0,1-2.42-4,15.77,15.77,0,0,1-.43-5.78,35.7,35.7,0,0,1,1-5.51,32.79,32.79,0,0,1,2-5.79,31.35,31.35,0,0,1,3.24-5.47,22.66,22.66,0,0,1,4.48-4.59,21.76,21.76,0,0,1,5.82-3.17A21.13,21.13,0,0,1,291,14.39a18.59,18.59,0,0,1,5.93.83,10.9,10.9,0,0,1,3.94,2.19A7.69,7.69,0,0,1,303,20.52,8.13,8.13,0,0,1,303.51,24.11Zm-9.54.73a2.93,2.93,0,0,0-1-2.56,5,5,0,0,0-3.43-1,8.59,8.59,0,0,0-3.49.69,10.06,10.06,0,0,0-2.83,1.86A12.94,12.94,0,0,0,281,26.58,19,19,0,0,0,279.4,30h3.22a28.91,28.91,0,0,0,5.18-.4,12.77,12.77,0,0,0,3.44-1.1,5.39,5.39,0,0,0,2-1.63A4.07,4.07,0,0,0,294,24.84Z"/><path class="cls-2" d="M363.7,16.31a5.31,5.31,0,0,1-.26,1.23c-.14.44-.27.81-.4,1.12q-1.79,4.14-3.85,8.31t-4.43,8.23q-2.37,4.06-5,8t-5.56,7.56a3,3,0,0,1-1,.87,5.08,5.08,0,0,1-1.38.5,11.71,11.71,0,0,1-1.81.21c-.66,0-1.43,0-2.3,0-1.08,0-2,0-2.64-.1a5.11,5.11,0,0,1-1.57-.33,1.25,1.25,0,0,1-.71-.63,2.38,2.38,0,0,1-.16-1l.05-21.11-11.25,21a5.58,5.58,0,0,1-.77,1.07,2.58,2.58,0,0,1-1.13.65,8.3,8.3,0,0,1-1.91.33c-.78.06-1.81.1-3.06.1s-2.23,0-3-.1a6.49,6.49,0,0,1-1.78-.33,1.47,1.47,0,0,1-.83-.63,2.09,2.09,0,0,1-.2-1l-.28-31c0-.26,0-.55,0-.88s0-.63.06-.89a4,4,0,0,1,.26-1.19,1.6,1.6,0,0,1,.75-.75,5.16,5.16,0,0,1,1.59-.42,22.88,22.88,0,0,1,2.8-.13c1,0,1.79,0,2.37.07a5.47,5.47,0,0,1,1.34.27,1,1,0,0,1,.59.52,1.79,1.79,0,0,1,.08.79l-.51,25.18-.08.46.27-.46L331.46,16.7a3.35,3.35,0,0,1,.55-.79,2.19,2.19,0,0,1,.89-.52,7.45,7.45,0,0,1,1.48-.27c.61,0,1.36-.07,2.25-.07s1.71,0,2.3.09a7.19,7.19,0,0,1,1.36.27,1.2,1.2,0,0,1,.65.46,1.33,1.33,0,0,1,.17.67l-.18,25.26v.42l.27-.42c1.09-1.64,2.2-3.45,3.33-5.45s2.25-4.08,3.36-6.26,2.17-4.4,3.18-6.67,1.95-4.52,2.81-6.72a1.62,1.62,0,0,1,.45-.81,2.58,2.58,0,0,1,1-.5,9,9,0,0,1,1.59-.27c.65,0,1.47-.07,2.47-.07s1.71,0,2.29.07a7.24,7.24,0,0,1,1.35.23,1.06,1.06,0,0,1,.6.39A1,1,0,0,1,363.7,16.31Z"/></g></g></svg>